<svg xmlns="http://www.w3.org/2000/svg" viewBox="0 0 32 32">
  <rect width="32" height="32" rx="8" fill="url(#grad)" />
  <g transform="translate(4, 4)">
    <path d="M4.8 2.3A.3.3 0 1 0 5 2H4a2 2 0 0 0-2 2v5a6 6 0 0 0 6 6v0a6 6 0 0 0 6-6V4a2 2 0 0 0-2-2h-1a.3.3 0 1 0 .2.3" stroke="#ffffff" stroke-width="2.2" stroke-linecap="round" stroke-linejoin="round" fill="none"/>
    <path d="M8 15v1a6 6 0 0 0 6 6h2a4 4 0 0 0 4-4v-1.5" stroke="#ffffff" stroke-width="2.2" stroke-linecap="round" stroke-linejoin="round" fill="none"/>
    <circle cx="20" cy="12" r="2.2" fill="#ffffff" stroke="#ffffff" stroke-width="0.5"/>
  </g>
  <defs>
    <linearGradient id="grad" x1="0%" y1="0%" x2="100%" y2="100%">
      <stop offset="0%" stop-color="#1e7f84" />
      <stop offset="100%" stop-color="#14b8a6" />
    </linearGradient>
  </defs>
</svg>
